<svg viewBox="0 0 323 317" xmlns="http://www.w3.org/2000/svg">
    <g fill="none" fill-rule="evenodd">
        <path d="M235.4 11.7c2.9 2.3 6.8 6 11.3 10.7 4.5 4.7 9.6 10.5 15 16.8 5.4 6.3 11 13.2 16.6 20.2 5.5 7 11 14 15.9 20.7 5 6.7 9.4 13 13.1 18.5 3.6 5.5 6.4 10.2 8 13.6 1.6 3.4 2.5 7.4 2.5 11.1 0 3.7-.5 9-1.4 15.5-.9 6.5-2.2 14.1-3.8 22.3-1.6 8.2-3.4 16.9-5.4 25.6-2 8.7-4.1 17.4-6.2 25.4-2.1 8.1-4.2 15.6-6.2 21.9-2 6.3-3.9 11.4-5.5 14.8-1.6 3.4-4.2 6.6-7.1 8.9-2.9 2.3-7.4 5.2-13.1 8.5-5.6 3.3-12.4 7-19.8 10.9-7.4 3.9-15.3 7.8-23.3 11.7-8 3.9-16.1 7.6-23.7 11-7.6 3.4-14.7 6.4-20.9 8.8-6.1 2.4-11.3 4.1-14.9 5-3.6.9-7.7.9-11.3 0-3.6-.9-8.7-2.6-14.9-5-6.1-2.4-13.3-5.4-20.9-8.8-7.6-3.4-15.7-7.1-23.7-11-8-3.9-16-7.9-23.3-11.7-7.4-3.8-14.1-7.6-19.8-10.9-5.6-3.3-10.2-6.2-13.1-8.5-2.9-2.3-5.4-5.5-7.1-8.9-1.6-3.4-3.5-8.5-5.5-14.8-2-6.3-4.1-13.8-6.2-21.9-2.1-8.1-4.2-16.8-6.2-25.4-2-8.7-3.8-17.4-5.4-25.6-1.6-8.2-2.9-15.8-3.8-22.3-.9-6.5-1.4-11.8-1.4-15.5 0-3.7.9-7.7 2.5-11.1 1.6-3.4 4.4-8.1 8-13.6 3.6-5.5 8.1-11.8 13.1-18.5 5-6.7 10.4-13.8 15.9-20.7 5.5-7 11.2-13.9 16.6-20.2 5.4-6.3 10.5-12.1 15-16.8 4.5-4.8 8.4-8.5 11.3-10.7 2.9-2.3 6.6-4 10.2-4.9 3.6-.9 8.9-1.6 15.5-2.2 6.5-.6 14.3-1 22.6-1.3 8.3-.3 17.2-.4 26.1-.4 8.9 0 17.8.1 26.1.4 8.3.3 16 .7 22.6 1.3 6.5.6 11.9 1.3 15.5 2.2 3.9.8 7.6 2.6 10.5 4.9" fill="#AD2B65"/>
        <path d="M227.7 168.4c-.9-9.4-6.1-23.8-13.8-38.4-2.2 3.4-6 5.7-10.4 5.7-6.9 0-12.5-5.6-12.5-12.5 0-6.6 5-11.9 11.4-12.4-1.2-1.7-1.8-2.5-1.8-2.5-12.2-17.4-21.2-32.4-39.8-32-21.6.5-39.6 6.4-45.5 23.5-6.5 18.8-6.5 48.2-8.9 68-4.4 37.3 22.9 53.4 55.8 54.8l2.2.1c32.6.3 66.9-17 63.3-54.3m-67.1-29.1c-4.1 0-7.5-3.4-7.5-7.5 0-4.2 3.4-7.5 7.5-7.5s7.5 3.4 7.5 7.5-3.4 7.5-7.5 7.5" fill="#F0E8DE"/>
    </g>
</svg>